<svg xmlns="http://www.w3.org/2000/svg" version="1.1" viewBox="-5.0 -10.0 110.0 135.0">
 <path d="m79.293 6.168c-0.72266-0.94531-2.0703-1.1406-3.0352-0.44141-0.52734 0.29297-0.94141 0.75-1.1836 1.3008-0.12109 0.28125-0.17188 0.58984-0.14844 0.89453-1.8555 0.55859-5.9336 3.6641-6.1055 3.7969-0.019531 0.015625-0.023437 0.042969-0.039062 0.0625 0.11328-1.4141 0.35547-2.8125 0.73047-4.1797 0.007812-0.042968 0.003906-0.085937-0.011719-0.125 0.76953-0.39453 1.2812-1.1523 1.3594-2.0117 0.26953-1.1602-0.42969-2.3242-1.5781-2.6328-0.54297-0.054687-1.082 0.14844-1.4492 0.55078-0.41406 0.43359-0.67969 0.99609-0.74609 1.5938-0.14063 0.83984 0.15234 1.6953 0.78125 2.2695-0.011719 0.019531-0.035157 0.027344-0.039063 0.046875l-0.003906 0.003906c-0.39062 1.4102-0.64453 2.8594-0.75391 4.3242-0.078124-0.003906-0.15625-0.023438-0.23437-0.023438v-0.003906c-1.4336-0.003906-2.7188 0.875-3.2383 2.2109-0.52344 1.332-0.16797 2.8516 0.89062 3.8164-0.76953 1.0234-4.8008 6.6797-8.043 16.812 0 0.003906 0.003907 0.007812 0 0.011718v-0.003906c-0.69531 0.90625-1.0547 2.0273-1.0078 3.1641 0.003906 0.039062 0.011719 0.074219 0.015625 0.11328-0.76562 2.8086-1.4609 5.9883-1.9609 8.9688-0.10547-0.046875-0.21484-0.085938-0.32813-0.11719-0.18359-0.0625-0.38281-0.074218-0.57422-0.03125-0.015625 0.003907-0.03125 0.015626-0.046875 0.019532s-0.035157 0-0.050781 0.003906c-0.1875 0.054688-0.35938 0.15625-0.49609 0.29688-0.125 0.11719-0.23828 0.25-0.33203 0.39453-1.5469 0.78516-2.707 2.168-3.2109 3.8281-0.44922 2.0508-0.15625 4.1953 0.82812 6.0508-0.26562 0.9375-0.73047 1.8086-1.3633 2.5547-0.16016 0.10156-0.24609 0.29297-0.20703 0.48047 0.03125 0.13281 0.14844 0.30859 0.51953 0.38672 0.12891 0.023437 0.26172 0.035156 0.39453 0.035156 0.11719-0.003906 0.23047-0.007813 0.34766-0.023438 0 0.019532-0.015625 0.039063-0.011718 0.058594v0.003906c0.14062 0.46094 0.45703 0.85547 0.88281 1.0859 0.41797 0.22656 0.89062 0.33594 1.3633 0.32422 0.30078-0.003906 0.59766-0.035156 0.89062-0.09375-0.09375 5.957 0.22656 11.914 0.95703 17.828-1.5742-2.8359-3.3906-5.5273-5.4336-8.0469-0.39062-0.89453-8.6836-19.836-17.465-32.227-6.4531-9.1055-6.8906-20.422-7.1016-25.863-0.089844-2.3438-0.14063-3.3086-0.47266-3.6055l-0.003906-0.003906c-0.0625-0.054688-0.14453-0.089844-0.23047-0.09375-0.003906 0-0.007812-0.007813-0.011718-0.007813-0.003907 0-0.007813 0.003907-0.011719 0.003907h-0.003907c-0.011718-0.003907-0.027343-0.003907-0.039062-0.003907-0.039062 0.003907-0.074219 0.019531-0.10547 0.042969-0.007812 0.003906-0.019531 0.003906-0.027343 0.011719h-0.003907c-0.042969 0.03125-0.074219 0.078125-0.085937 0.13281-0.089844 0.34766-8.6562 35.094 15.996 60.176 3.4727 5.3594 7.3867 10.422 11.703 15.129 6.4453 6.8555 8.0938 11.543 8.1094 11.59v0.003907c0.011718 0.027343 0.03125 0.054687 0.058593 0.078125 0.011719 0.011718 0.015625 0.03125 0.03125 0.039062h-0.003906c0.042969 0.03125 0.097656 0.050782 0.14844 0.050782 0.015626 0 0.027344 0 0.039063-0.003907l0.003906-0.003906 0.019531-0.003906c0.019532-0.003907 0.023438-0.023438 0.039063-0.03125v0.003906c0.039063-0.015625 0.070313-0.039063 0.097656-0.070313 0.011719-0.019531 0.019531-0.042968 0.023438-0.0625 0.007812-0.023437 0.027343-0.042968 0.027343-0.070312v-0.003906c-0.17969-4.0195-1.0898-7.9727-2.6836-11.668 0-0.007813 0.007812-0.015625 0.003906-0.023437-1.1758-7.5742-1.7305-15.234-1.6562-22.902 0.47266 0.17969 0.97266 0.27734 1.4766 0.28516 0.29297 0 0.58203-0.035156 0.86719-0.10156 1.1641-0.32813 2.168-1.0742 2.8203-2.0938 3.1641-0.60547 2.8789-2.9023 2.875-2.9258h0.003906c-0.011719-0.054687-0.039063-0.10547-0.082032-0.14062 0.32031-0.082031 0.625-0.22266 0.89844-0.41406 0.30469-0.23828 0.33203-0.45312 0.30078-0.58984h-0.003906c-0.054687-0.19141-0.22266-0.32422-0.42188-0.33594-0.90625-0.36719-1.7227-0.92188-2.3945-1.625 0.003906-2.1016-0.73828-4.1367-2.0898-5.7422-0.80859-0.83203-1.8398-1.4102-2.9727-1.6602 0.34375-2.1484 0.76953-4.2734 1.2578-6.3438h-0.003906c0.30859 0.46094 0.66406 0.88672 1.0586 1.2773 0.039062 0.75-0.082031 1.5-0.35156 2.1992-0.10938 0.13672-0.12109 0.32422-0.03125 0.47266 0.09375 0.12891 0.25 0.19922 0.40625 0.18359 0.058594 0 0.11328-0.003906 0.16797-0.011718 0.16406-0.035157 0.32422-0.085938 0.47266-0.15234 0.23438 0.32031 0.58203 0.53906 0.97266 0.60938 0.11328 0.019531 0.22656 0.03125 0.34375 0.03125 0.70703-0.054688 1.3828-0.32031 1.9336-0.76953 0.35547 0.089843 0.72266 0.13672 1.0859 0.14062 0.61719 0.011719 1.2188-0.15625 1.7422-0.48047 0.78906-0.54688 1.3516-1.3594 1.5859-2.293 2.2227-1.2852 1.4062-2.9609 1.3945-2.9766-0.015625-0.027343-0.042969-0.035156-0.066406-0.054687v-0.003906c0.20703-0.13672 0.38672-0.3125 0.53125-0.51172 0.14062-0.16016 0.16797-0.38672 0.070312-0.57422-0.10156-0.14453-0.28125-0.21484-0.45312-0.16797-0.75391-0.039062-1.4883-0.23828-2.1523-0.58594-0.54297-1.5703-1.625-2.8984-3.0508-3.7539-1.0664-0.52734-2.2852-0.65234-3.4336-0.34766 1.1406-3.375 2.5547-6.6523 4.2344-9.793 0.27734-0.48047 0.73828-0.83203 1.2734-0.97266 0.51953-0.035157 1.0234 0.17969 1.3633 0.57812 0.015625 0.015626 0.039063 0.011719 0.058594 0.023438l-0.003906-0.003906c-0.83984 0.88672-1.293 2.0781-1.2461 3.3008 0.17188 1.4805 0.85938 2.8555 1.9414 3.8789 0.035157 0.66016-0.070312 1.3242-0.3125 1.9453-0.10156 0.12891-0.11328 0.30859-0.027343 0.44922 0.089843 0.125 0.23437 0.19141 0.38672 0.17578 0.050782 0 0.10156-0.003906 0.15234-0.011719 1.1641-0.33984 2.0703-1.2539 2.4023-2.418 0.68359 0.32031 1.4688 0.32812 2.1602 0.027344 0.78125-0.52344 1.2578-1.3945 1.2773-2.3359 0.16406 0.019532 0.32812 0.035157 0.49219 0.039063 1.0039 0.058594 1.9766-0.35156 2.6328-1.1055 0.13281-0.15234 0.16016-0.36719 0.066406-0.54297-0.097656-0.14063-0.26953-0.20703-0.43359-0.16406-0.66406-0.03125-1.3125-0.20703-1.9023-0.51562-0.48828-1.4062-1.457-2.5977-2.7383-3.3633-1.082-0.53516-2.3359-0.61719-3.4844-0.22656 0.007813-0.039062 0-0.082031-0.015625-0.12109-0.51562-0.87109-1.4766-1.375-2.4883-1.3008 0.78516-1.2383 1.293-1.8789 1.2969-1.8867l0.003906 0.003907c0.023438-0.042969 0.039063-0.089844 0.039063-0.13672 0.30078 0.089844 0.61719 0.13672 0.93359 0.14453 1.918-0.003906 3.4766-1.5586 3.4766-3.4805 0-0.73437-0.23828-1.4492-0.67578-2.0391 0.023437-0.003906 0.046875-0.011719 0.066406-0.019531 0.042969-0.03125 4.2422-3.2305 5.9883-3.7266v-0.003906c0.042969-0.015625 0.078125-0.046875 0.10547-0.082031 0.29688 0.14062 0.62109 0.21484 0.94922 0.21094 0.49609-0.003906 0.98438-0.14062 1.4102-0.39453 0.52734-0.29297 0.94531-0.75 1.1875-1.3008 0.23047-0.49219 0.21094-1.0703-0.050781-1.5469zm-11.711-1.1289c0.054688-0.48828 0.26562-0.94531 0.60547-1.3047 0.23047-0.25391 0.55469-0.40234 0.89453-0.41406 0.046875 0 0.089844 0.003907 0.13281 0.007813 0.875 0.27344 1.3789 1.1875 1.1484 2.0703-0.13672 1.043-0.86719 1.8164-1.6328 1.7109l-0.003907 0.003906c-0.87109-0.27344-1.375-1.1875-1.1445-2.0742zm0.70312 2.4688c0.12109 0.050782 0.24609 0.085938 0.37891 0.10156 0.0625 0.007813 0.12891 0.011719 0.19141 0.011719 0.042969 0 0.085937-0.011719 0.12891-0.015625h0.003906c-0.37109 1.4102-0.60938 2.8516-0.71875 4.3086-0.22266-0.10547-0.46094-0.18359-0.69922-0.23828 0.10547-1.4062 0.34375-2.8047 0.71484-4.168zm-38.539 32.281c8.9219 12.586 17.344 31.973 17.43 32.168 0.007813 0.019531 0.019531 0.039063 0.035157 0.058594 8.1797 10.117 10.074 19.133 10.508 22.961-4.1016-10.625-22.02-37.156-22.848-38.375-14.34-16.539-12.961-40.066-12.445-45.309 0.058594 0.61719 0.09375 1.4688 0.12891 2.3672 0.21094 5.4844 0.65234 16.902 7.1914 26.129zm8.6992 30.191c-19-19.336-18.145-44.422-16.766-54.855-0.30469 8.875 0.67578 27.805 12.793 41.777 0.18359 0.27344 16.34 24.191 21.797 35.977h0.003907c-1.793-2.793-3.8555-5.4062-6.1523-7.8008-4.3047-4.6992-8.2109-9.75-11.676-15.098zm16.449 13.457c-0.35938-0.80078-0.76172-1.6289-1.2031-2.4766-0.83594-6.3438-1.2031-12.742-1.0938-19.141 0.085938-0.023437 0.16406-0.039062 0.25391-0.0625 0.21484 0.13672 0.4375 0.26172 0.66797 0.375-0.078125 7.125 0.37891 14.25 1.375 21.305zm4.0898-23.477c-0.070313 0.011718-0.13281 0.054687-0.17188 0.11719-0.58984 0.94531-1.5039 1.6406-2.5703 1.9609-1.1289 0.21094-2.293-0.0625-3.207-0.75l-0.011718-0.003906c-0.050782-0.035156-0.11328-0.046875-0.17578-0.03125-0.007812 0-0.019531-0.003906-0.027344-0.003906-0.86328 0.37109-1.8398 0.38672-2.7148 0.035156-0.3125-0.16016-0.54688-0.4375-0.65625-0.77344-0.003907-0.007813-0.011719-0.011719-0.015625-0.019531 1.2656-0.30469 2.3789-1.0508 3.1406-2.1055v-0.003907c0.58594 0.55469 1.3164 0.92969 2.1094 1.0781-0.007813 0.03125-0.03125 0.054687-0.027344 0.089843 0.035156 0.47656 0.24219 0.92578 0.58203 1.2617 0.13672 0.10156 0.30469 0.15234 0.47656 0.15234 0.066406 0 0.13281-0.007813 0.19531-0.019532 0.24219-0.046874 0.45312-0.19922 0.56641-0.41797 0.15234-0.46094 0.12109-0.96484-0.078124-1.4102l-0.003907-0.003907h-0.003906c0.8125-0.54688 1.4453-1.3164 1.8281-2.2188 0.79297 0.39844 1.668 0.61328 2.5547 0.625 0.27734 0 0.55078-0.027343 0.82422-0.074219-0.027344 0.039063-0.039062 0.082032-0.035156 0.12891 0.011719 0.078125 0.23047 1.8945-2.5781 2.3867zm-3.043-0.62891c0.14062 0.30078 0.17188 0.64453 0.089844 0.96484-0.042969 0.085937-0.12891 0.14844-0.22656 0.16016-0.09375 0.023438-0.19141 0.007813-0.27344-0.050781-0.22266-0.25-0.35547-0.57031-0.37891-0.90234 0-0.007812-0.007813-0.007812-0.007813-0.015625v-0.003906c0.10547 0 0.20703-0.007813 0.30859-0.019531 0.16797-0.03125 0.33203-0.074219 0.48828-0.13281zm3.9102-4.8359h0.003907c-0.003907 0.066406 0.023437 0.13281 0.070312 0.18359 0.76172 0.78906 1.6836 1.4141 2.6992 1.8281-0.15234 0.125-0.32422 0.22266-0.51172 0.28516-1.3008 0.41797-2.7227 0.25781-3.8945-0.44531h-0.007812l-0.003907-0.007812c-0.03125-0.007813-0.066406-0.007813-0.097656-0.003906-0.066406-0.023438-0.13672 0.003906-0.17188 0.066406-0.019531 0.019531-0.042969 0.023437-0.058594 0.046875v0.007812l-0.007812 0.003907c-0.69531 1.5117-1.5352 2.3555-2.4961 2.5039l0.003906 0.003906c-1.0078 0.027344-1.9766-0.39062-2.6523-1.1367-0.050781-0.058593-0.125-0.089843-0.20312-0.082031-0.074219 0.003906-0.14453 0.042969-0.1875 0.10938-0.054688 0.078125-0.10547 0.15234-0.16016 0.22656h-0.003906c-0.76953 1.0938-1.9609 1.8164-3.2852 1.9922-0.20703 0.027344-0.41406 0.019531-0.61719-0.027344 0.69922-0.83984 1.2188-1.8164 1.5234-2.8672 0.019531-0.066406 0.011719-0.13672-0.023438-0.19531-0.94141-1.7695-1.2344-3.8125-0.83203-5.7734 0.47656-1.5508 1.5742-2.8359 3.0273-3.5547l0.003906-0.003906c0.074219-0.011719 0.13672-0.058594 0.17188-0.12891 0.046875-0.10547 0.11328-0.20703 0.19141-0.29297 0.019531-0.015625 0.035157-0.035156 0.054688-0.050781h0.003906c0.039063-0.03125 0.085937-0.058594 0.13281-0.078125 0.042968-0.027344 0.089843-0.046875 0.14062-0.0625 0.046876-0.011719 0.097657-0.011719 0.14844-0.011719 0.050781-0.003906 0.097656 0 0.14453 0.007812 0.03125 0.007813 0.058594 0.015626 0.089844 0.023438h0.003906c0.10547 0.039062 0.20703 0.09375 0.30078 0.16406 0.058594 0.046876 0.13672 0.058594 0.21094 0.035157h0.003906-0.003906c1.625-0.039063 3.1914 0.58594 4.3398 1.7344 1.2695 1.5508 1.9609 3.4961 1.9531 5.4961zm-3.6914-14.402c-0.53125 2.2109-0.98438 4.4961-1.3555 6.7969-0.27344-0.042969-0.55078-0.074219-0.82813-0.089844 0.44141-2.6289 1.0391-5.4023 1.6992-7.9492 0.12891 0.41797 0.30078 0.82422 0.51172 1.207-0.007812 0.011718-0.023438 0.019531-0.027344 0.035156zm10.723-0.98828c0.027344 0.054687 0.62109 1.3203-1.2891 2.3711-0.066406 0.035157-0.10938 0.097657-0.125 0.17188-0.19531 0.83984-0.69141 1.582-1.3906 2.082-0.77344 0.4375-1.6953 0.53125-2.543 0.25781h-0.011718c-0.046876-0.007812-0.09375 0-0.13672 0.019531-0.015625 0.003907-0.03125 0.003907-0.042969 0.011719-0.007812 0.003907-0.015625 0-0.019531 0.003907h-0.003907c-0.53516 0.48828-1.2461 0.74609-1.9727 0.71484-0.24609-0.035156-0.47266-0.16016-0.63281-0.35547 0.83203-0.55078 1.4492-1.3711 1.75-2.3203 0.55859 0.24219 1.168 0.33203 1.7695 0.25391 0.003906 0.011719-0.003906 0.023438 0 0.035156h0.003906c0.15625 0.35938 0.4375 0.65234 0.78906 0.82031 0.066406 0.019531 0.13672 0.027344 0.20312 0.03125 0.13281-0.003906 0.26172-0.039063 0.375-0.10938 0.18359-0.10547 0.30859-0.28516 0.33984-0.49609 0-0.39062-0.14844-0.76562-0.41406-1.0508 0.4375-0.60156 0.70312-1.3164 0.76562-2.0586 0.19141 0.023438 0.38672 0.039063 0.57812 0.046875 0.69922 0.007813 1.3828-0.15625 2.0039-0.47266 0.003906 0.015625-0.003906 0.03125 0.003906 0.042969zm-3.7148 2.7852h-0.003907c0.16406 0.17578 0.26563 0.39844 0.28906 0.63281-0.011719 0.0625-0.050781 0.11719-0.10547 0.14062-0.050781 0.035157-0.11328 0.046876-0.17188 0.027344-0.18359-0.054687-0.375-0.33203-0.46484-0.51562 0.058593-0.023437 0.11719-0.042969 0.17187-0.070312 0.10156-0.0625 0.19531-0.13672 0.28125-0.21484zm-1.1914-8.2148c1.332 0.82031 2.3359 2.082 2.8359 3.5664 0.023438 0.066406 0.070312 0.11719 0.13281 0.14844 0.74609 0.38672 1.5625 0.62109 2.3984 0.68359-0.09375 0.125-0.21094 0.23438-0.33594 0.32422-0.84375 0.57422-1.8828 0.78125-2.8789 0.57422l-0.007812 0.003906-0.007813-0.003906c-0.039062 0-0.078125 0.011719-0.11328 0.035156-0.019531 0.007813-0.039062 0.003907-0.054688 0.015626-0.03125 0.027343-0.050781 0.0625-0.0625 0.097656-0.011718 0.019531-0.035156 0.035156-0.039062 0.058594v0.007812l-0.003906 0.007812c0.042968 0.96875-0.40625 1.8945-1.1875 2.4648-0.73047 0.26953-1.5391 0.20703-2.2227-0.16406-0.066407-0.039063-0.14453-0.042969-0.21875-0.011719-0.070313 0.03125-0.12109 0.089844-0.14063 0.16406-0.24609 1.0156-0.89453 1.8906-1.7969 2.418-0.16406 0.09375-0.34375 0.16406-0.52734 0.20703 0.27734-0.78906 0.39844-1.625 0.35547-2.4648 0-0.066406-0.03125-0.13281-0.082031-0.17578-1.1445-1.0703-1.8828-2.5039-2.0859-4.0586-0.039063-1.2617 0.44141-2.4844 1.332-3.3828 0.0625-0.039062 0.10547-0.10156 0.11328-0.17578 0.007813-0.089844 0.027344-0.17188 0.0625-0.25391 0.011719-0.019531 0.023438-0.035157 0.035156-0.054688 0.019532-0.035156 0.046876-0.066406 0.074219-0.09375 0.039063-0.042969 0.089844-0.078125 0.14844-0.09375 0.039062-0.015625 0.078125-0.027343 0.12109-0.03125 0.019532-0.003906 0.039063-0.007812 0.058594-0.007812 0.085938 0 0.17188 0.015625 0.25781 0.042969 0.070312 0.023437 0.14453 0.015624 0.20703-0.027344 1.1836-0.44141 2.4961-0.375 3.6328 0.17969zm8.3438-11.156c1.1836 0.73047 2.0781 1.8555 2.5273 3.1758 0.019532 0.066407 0.066406 0.12109 0.12891 0.14844 0.65625 0.33203 1.3711 0.54297 2.1055 0.61719h0.007813c-0.76562 0.69531-1.8164 0.97266-2.8242 0.75l-0.007813 0.003906-0.007812-0.003906c-0.03125-0.003907-0.058594 0.019531-0.089844 0.027343-0.066406-0.003906-0.125 0.042969-0.13672 0.10547-0.015626 0.027344-0.042969 0.042969-0.046876 0.074219v0.007812l-0.003906 0.007813h0.003906c0.035157 0.85938-0.35937 1.6797-1.0508 2.1875-0.64453 0.23438-1.3594 0.17969-1.9648-0.14844-0.066407-0.039062-0.14453-0.042968-0.21484-0.011718-0.070313 0.03125-0.125 0.089843-0.14453 0.16406-0.23828 1.0625-0.99219 1.9336-2.0117 2.3242 0.23438-0.69922 0.33594-1.4375 0.30469-2.1719-0.003906-0.070313-0.035156-0.13672-0.085937-0.17969-1.0195-0.95312-1.6758-2.2305-1.8555-3.6133-0.035156-1.1211 0.39062-2.207 1.1797-3.0039 0.0625-0.042969 0.10156-0.10547 0.10938-0.17969 0.007812-0.074219 0.027343-0.14844 0.054687-0.21484 0.007813-0.015626 0.019531-0.03125 0.027344-0.042969v-0.003907c0.019531-0.027343 0.039062-0.054687 0.0625-0.074218 0.019531-0.019532 0.039062-0.039063 0.058593-0.054688 0.023438-0.011718 0.046876-0.023437 0.070313-0.03125 0.03125-0.011718 0.066406-0.019531 0.10156-0.027344 0.015624-0.003906 0.03125-0.003906 0.050781-0.007812v0.003906c0.074219 0 0.14844 0.011719 0.21875 0.039063 0.070312 0.023437 0.14453 0.011719 0.20312-0.027344 1.0547-0.39062 2.2188-0.33594 3.2305 0.16016zm-6.3555-2.0781c-0.015625 0.03125-0.019532 0.066406-0.019532 0.10156-0.078124 0.054687-0.11719 0.14844-0.097656 0.24219 0.035156 0.13281 0.16797 0.21094 0.30078 0.18359 0.89844-0.19922 1.8281 0.14844 2.375 0.88672-0.11328 0.015625-0.22266 0.054687-0.32031 0.10938-0.011719 0.007812-0.019531 0.019531-0.03125 0.027344-0.011719 0.007812-0.023437 0.007812-0.03125 0.015624-0.09375 0.066407-0.17578 0.15234-0.23828 0.25391-0.4375-0.46094-1.0586-0.69531-1.6914-0.64062-0.6875 0.16406-1.2812 0.60547-1.6367 1.2227v0.003906l-0.003907 0.003906v-0.003906c-1.7188 3.2188-3.168 6.5742-4.3281 10.031-0.007813 0.039063-0.003907 0.082032 0.007812 0.12109-0.14453-0.027344-0.28906-0.03125-0.42969-0.019531-0.023437 0-0.042968 0.007812-0.0625 0.011719h-0.003906c-0.10547 0.015624-0.21094 0.050781-0.30859 0.097656-0.007812 0.003906-0.019531 0.003906-0.027343 0.007812 3.1094-9.0781 6.7227-14.18 7.457-15.156v-0.003906c0.17969 0.125 0.37109 0.23047 0.57422 0.32031-0.53125 0.69922-1.0273 1.4297-1.4844 2.1836zm2.8711-2.3906c-1.2031 0-2.2891-0.72656-2.75-1.8398-0.46094-1.1133-0.20703-2.3906 0.64453-3.2422 0.85156-0.85156 2.1328-1.1055 3.2461-0.64453 1.1133 0.45703 1.8359 1.543 1.8359 2.75 0 1.6406-1.332 2.9727-2.9766 2.9766zm2.5664-5.4375c-0.027344 0.019531-0.03125 0.050781-0.046875 0.078125-0.19141-0.20312-0.40234-0.38281-0.63672-0.53516 0.015625-0.027344 0.039062-0.050781 0.039062-0.085938l0.003907-0.046874c0.007812 0.011718 0 0.027343 0.011719 0.042968 0.039062 0.054688 0.097656 0.085938 0.16406 0.097656 0.066406 0.007813 0.13281-0.011718 0.18359-0.050781 0.042968-0.03125 4.1523-3.1602 5.9258-3.707h0.003906c0.019531 0.058594 0.042969 0.11328 0.070313 0.16797 0.066406 0.10938 0.14453 0.20703 0.23828 0.29688-1.918 0.66797-5.7891 3.6133-5.957 3.7422zm9.4805-5.0898c-0.19922 0.44922-0.54297 0.82422-0.97656 1.0625-0.72656 0.55469-1.7617 0.44141-2.3516-0.26172-0.17969-0.34375-0.1875-0.75391-0.023438-1.1055 0.20312-0.44922 0.54688-0.82422 0.97656-1.0625 0.35547-0.20703 0.75781-0.32031 1.168-0.32812 0.47266-0.03125 0.92578 0.19531 1.1836 0.58984 0.18359 0.34375 0.19141 0.75391 0.023437 1.1055z"/>
</svg>