<svg xmlns="http://www.w3.org/2000/svg" xmlns:xlink="http://www.w3.org/1999/xlink" xml:space="preserve" version="1.1" style="shape-rendering:geometricPrecision;text-rendering:geometricPrecision;image-rendering:optimizeQuality;" viewBox="0 0 60000 75000" x="0px" y="0px" fill-rule="evenodd" clip-rule="evenodd"><defs><style type="text/css">
   
    .fil0 {fill:black;fill-rule:nonzero}
   
  </style></defs><g><path class="fil0" d="M21908 6355c810,-338 751,-754 687,-1204 -32,-230 -66,-467 -22,-720 6,-35 22,-66 44,-90 191,-244 379,-250 566,-203 -43,-44 -89,-77 -139,-97 -143,-55 -347,11 -639,321 -57,60 -145,72 -215,35l-28 -15c-207,-109 -653,-345 -1013,-189 -11,5 -23,9 -35,11l0 0c-344,70 -514,457 -611,679l-17 39c61,277 244,727 572,1052 216,215 498,373 850,380zm-2830 4915c-145,315 -439,458 -747,608 -166,81 -337,164 -475,284 -24,127 70,199 164,271 88,68 177,135 239,240 47,80 21,183 -59,230 -20,12 -41,19 -63,22 -274,46 -581,51 -804,-105 -214,-150 -336,-428 -252,-920 -269,-136 -703,-370 -784,-856 -159,-456 72,-915 223,-1175 -327,-380 -367,-681 -259,-921 112,-250 381,-404 641,-506 86,-34 184,9 217,95 9,24 13,49 11,74 -2,115 -42,215 -81,314 -44,110 -87,220 -1,317 179,32 369,15 555,-1 535,-47 1032,-91 1401,734 206,-1174 1225,-2361 2666,-3201 -882,139 -1127,-305 -1390,-781 -91,-165 -185,-334 -313,-468 -126,-16 -193,82 -260,180 -65,95 -129,189 -234,259l0 0c-18,12 -38,20 -60,25 -96,21 -191,-39 -212,-135 -63,-280 -86,-599 63,-838 143,-229 421,-369 929,-310 126,-284 343,-736 834,-846 459,-188 940,22 1215,163 372,-354 679,-410 931,-313 263,102 437,370 555,632 9,20 14,41 15,63 5,98 -70,182 -168,188 -124,7 -233,-29 -341,-66 -112,-38 -225,-76 -316,12 -23,185 4,377 31,564 58,411 113,801 -215,1148 627,-257 1305,-450 2009,-558 1097,-168 2261,-127 3402,203 404,117 805,270 1199,464 -179,-413 -14,-758 161,-1121 81,-170 165,-344 200,-527 -60,-112 -179,-110 -298,-108 -115,2 -230,4 -345,-40 -20,-8 -39,-19 -56,-34 -73,-66 -79,-179 -13,-252 192,-214 438,-417 721,-434 268,-16 544,129 791,577 304,-62 798,-148 1172,187 420,265 528,779 573,1086 505,97 728,316 795,577 70,273 -48,569 -192,817l-1 1c-11,18 -25,35 -43,50 -77,62 -189,49 -250,-27 -79,-98 -112,-208 -145,-318 -34,-113 -68,-227 -193,-250 -164,89 -304,222 -441,351 -256,243 -501,475 -859,499 1554,1315 2876,3438 3660,6647l0 0c640,2128 978,4084 1089,5906 712,-921 1428,-1815 2131,-2694 2564,-3202 4960,-6193 6329,-9501 35,-95 104,-177 201,-227 206,-106 459,-25 565,181 3041,5914 3522,10373 2514,13893 -12,43 -25,85 -38,128 -685,4045 -4261,7886 -7924,11819 -3012,3235 -6083,6533 -7565,9984 -701,1632 -1344,4416 -1172,6823 120,1670 633,3142 1804,3848l0 0c890,486 1870,928 2928,1325 217,81 327,322 246,538 -81,217 -322,327 -538,246 -1109,-416 -2136,-880 -3069,-1391l0 0 -4 -3c-597,-327 -1156,-674 -1673,-1040 -1910,-1351 -3267,-2967 -3929,-4843 -560,-1586 -620,-3347 -94,-5278 26,-832 209,-1998 419,-3151 -598,-6613 -4592,-7752 -8539,-8876 -2173,-619 -4332,-1234 -6001,-2701l1 -1c-151,-132 -188,-358 -80,-534 598,-965 1550,-1809 2722,-2449 1472,-804 3300,-1293 5211,-1301 1912,-8 3909,466 5718,1586 1373,850 2634,2072 3664,3735 1543,-3680 3625,-6774 5777,-9599 -14,-356 -36,-717 -68,-1084 -6,18 -15,34 -25,49 -227,365 -534,726 -936,824 -391,95 -840,-55 -1334,-681 -432,174 -1176,469 -1837,57 -717,-287 -1014,-1070 -1160,-1512 -799,1 -1197,-259 -1364,-626 -173,-379 -77,-849 72,-1256 39,-109 160,-165 268,-126 25,9 47,22 66,39l0 0c137,120 215,273 293,426 97,191 194,381 449,366 242,-188 428,-441 609,-687 542,-737 1273,-1742 2933,-1060 12,5 24,11 35,18 1551,879 1096,2016 853,2895 -81,294 -165,597 -163,903 146,210 357,168 567,126 168,-33 335,-67 514,-33 62,12 113,50 142,100 -149,-1572 -470,-3245 -1010,-5042l-2 -11c-1178,-4838 -3598,-7114 -6146,-7851 -587,-170 -1182,-258 -1770,-278 715,190 840,691 972,1225 54,217 109,441 217,634 151,66 263,-29 374,-125 100,-86 200,-171 336,-217 99,-33 206,20 239,119 8,24 11,48 9,72 -14,330 -84,690 -319,909 -226,211 -580,282 -1134,59 -224,279 -604,731 -1189,706 -575,75 -1055,-315 -1320,-556 -525,290 -885,262 -1135,79 -261,-191 -374,-541 -427,-868 -17,-103 53,-200 156,-216 25,-4 49,-3 72,2 138,29 247,102 355,174 122,81 245,163 386,80 84,-204 112,-433 139,-656 67,-544 130,-1056 812,-1332 -1043,160 -2023,516 -2857,992 -1626,928 -2690,2300 -2543,3531 392,3275 3000,4378 4774,5129 1156,489 1997,845 1819,1583 737,108 811,509 891,941 26,140 53,285 112,412 77,32 144,-19 211,-69 73,-55 145,-110 242,-136 84,-23 170,27 193,111 6,23 7,47 3,69 -24,223 -88,463 -259,604 -165,136 -408,174 -770,8 -166,181 -438,455 -828,415 -385,25 -689,-242 -862,-417 -363,167 -607,130 -773,-7 -174,-144 -237,-389 -260,-616 -9,-86 54,-163 140,-172 20,-2 39,0 57,5l0 0c97,26 170,81 242,136 67,51 134,101 211,69 59,-127 86,-272 112,-412 80,-434 154,-837 900,-943 2,-11 5,-22 9,-33 156,-439 -558,-741 -1555,-1163 -1757,-743 -4292,-1816 -4932,-4875zm-892 306c404,-197 777,-378 599,-1241 -290,-836 -705,-799 -1154,-760 -222,20 -451,40 -693,-14 -28,-5 -56,-17 -79,-37 -246,-208 -234,-400 -172,-588 -53,44 -96,93 -120,148 -62,139 -8,344 282,647 51,53 62,135 22,202l-17 29c-116,195 -366,614 -240,973 6,14 10,28 13,44 51,342 422,528 634,635 34,17 65,33 89,45l0 0c65,35 101,109 84,184 -93,410 -34,613 91,700 49,34 110,55 179,65 -150,-129 -259,-287 -155,-592 9,-25 23,-48 43,-68 181,-173 391,-275 594,-374zm132 -989c36,-86 134,-126 219,-91 86,36 126,134 91,219 -76,182 -229,384 -440,540 -175,129 -391,227 -640,258 -92,12 -176,-53 -187,-145 -12,-92 53,-175 145,-187 187,-24 351,-99 484,-197 160,-118 274,-266 329,-398zm11830 -3816c749,468 1054,179 1385,-135 169,-160 342,-324 574,-436 30,-15 62,-20 93,-17 313,13 429,163 499,343 10,-60 11,-117 -2,-169 -38,-149 -210,-276 -632,-334 -82,-11 -144,-77 -153,-156l-5 -36c-31,-233 -99,-727 -432,-928 -13,-8 -24,-17 -34,-27 -257,-234 -667,-149 -903,-100l-7 1 -35 7c-195,216 -481,648 -557,1111 -49,297 -9,608 209,875zm4475 5296c27,1057 514,1168 1043,1289 263,60 534,122 789,273 28,17 51,40 66,66 208,337 104,551 -46,747 94,-32 176,-77 233,-141 125,-139 140,-396 -81,-853 -39,-81 -15,-177 53,-230l23 -20c207,-182 654,-574 634,-1041 -1,-13 0,-26 2,-38 68,-415 -287,-766 -491,-967l-39 -39c-340,-50 -988,-30 -1505,203 -328,148 -599,385 -680,751zm959 1657c-679,-155 -1305,-299 -1335,-1659 -1,-11 -1,-22 0,-34 142,-1364 781,-1454 1473,-1552 221,-31 449,-63 652,-151 82,-143 -2,-264 -86,-385 -73,-105 -145,-210 -178,-343 -8,-25 -10,-52 -6,-80 15,-103 110,-175 213,-160 328,48 681,154 876,412 187,247 222,606 -57,1134 255,252 666,676 580,1256 15,578 -422,1016 -688,1255 235,552 170,908 -38,1138 -214,237 -568,314 -896,335 -26,3 -53,1 -80,-7 -100,-31 -155,-138 -123,-237 43,-135 127,-237 211,-339 94,-113 187,-227 118,-376 -196,-105 -420,-156 -638,-206zm-9007 4617c-63,-343 -122,-660 -804,-705 -682,45 -741,362 -804,705 -33,178 -67,363 -162,540 -12,23 -29,43 -51,58 -183,125 -317,113 -435,54 11,14 23,27 37,38 87,72 246,71 530,-81l0 0c61,-33 138,-22 187,30l10 11c3,3 6,6 9,9 124,129 390,408 686,383 10,-1 21,-1 31,1 263,32 479,-207 603,-344 20,-22 38,-42 49,-54 47,-54 127,-71 193,-35 284,153 444,153 530,81 13,-11 26,-24 37,-38 -117,58 -250,70 -431,-52 -22,-14 -41,-34 -54,-58 -96,-179 -130,-364 -163,-543zm-724 -298c-68,-54 -80,-153 -26,-221 54,-68 153,-80 221,-26 126,99 252,263 328,463 63,165 93,357 64,558 -12,86 -92,146 -178,134 -86,-12 -146,-92 -134,-178 21,-144 -1,-282 -47,-402 -55,-144 -142,-260 -228,-327zm-5290 -3720c9,1 18,4 27,7 982,336 940,822 895,1348 -14,160 -28,325 -2,479 77,62 167,27 256,-9 93,-37 186,-74 296,-74 92,0 167,75 167,167 0,21 -4,42 -11,60 -91,235 -230,478 -456,579 -215,97 -485,65 -823,-220 -229,145 -601,360 -1008,203 -421,-86 -667,-464 -799,-700 -438,73 -687,-37 -823,-231 -143,-204 -138,-483 -97,-731 15,-91 102,-153 193,-138 21,4 40,11 58,21l1 1c95,56 156,136 217,215 59,76 117,152 215,138 102,-119 173,-268 243,-412 230,-475 442,-913 1450,-704zm587 1327c33,-390 64,-749 -659,-1000 -749,-153 -906,171 -1076,523 -86,178 -175,362 -325,523 -19,23 -45,41 -75,52 -244,84 -386,20 -496,-89 9,30 22,57 39,81 73,104 246,152 596,72 73,-18 151,14 189,83l14 26c95,176 299,556 626,616 11,2 23,5 34,10 274,112 579,-82 753,-193l0 0c22,-14 41,-26 65,-40 64,-45 153,-41 212,16 262,250 436,297 552,245 27,-12 52,-29 76,-50 -151,37 -305,20 -473,-177l0 0c-17,-20 -29,-44 -36,-71 -50,-220 -32,-426 -15,-626zm-688 -537c-55,-74 -40,-179 35,-234 74,-55 179,-40 234,35 105,143 191,354 214,589 19,194 -5,407 -95,613 -37,85 -136,124 -221,87 -85,-37 -124,-136 -87,-221 66,-150 83,-305 69,-448 -17,-172 -76,-322 -150,-421zm6403 -7779c-130,-527 -251,-1013 -1312,-1019 -1061,132 -1123,631 -1189,1170 -33,267 -67,542 -192,813l0 0c-12,27 -31,51 -56,70 -316,245 -540,163 -751,33 42,91 95,167 164,218 151,110 408,99 840,-168l0 0c70,-43 163,-37 227,22l19 18c4,3 7,6 11,9 202,187 638,592 1100,524l0 0c12,-2 25,-2 38,-2 420,26 733,-364 912,-588 25,-31 48,-60 70,-86 53,-68 147,-93 228,-55 461,213 717,193 854,66 62,-58 106,-140 136,-235 -194,155 -407,262 -750,57 -25,-15 -47,-36 -64,-63 -157,-254 -223,-523 -288,-784zm-1129 -408c-86,-59 -107,-177 -48,-262 59,-86 177,-107 262,-48 192,133 389,360 517,644 106,235 167,511 142,807 -9,104 -100,181 -204,173 -104,-9 -181,-100 -173,-204 19,-227 -28,-440 -110,-621 -99,-219 -246,-391 -387,-489zm5437 2852c11,4 22,9 32,15 1392,719 1223,1439 1040,2218 -60,256 -122,520 -111,783 128,164 302,122 477,81 147,-35 295,-71 453,-47l0 0c24,3 47,11 69,24 96,54 129,176 75,271 -188,331 -447,664 -801,765 -341,97 -740,-18 -1193,-545 -374,168 -1010,443 -1601,106 -632,-226 -920,-890 -1063,-1274 -696,25 -1052,-191 -1212,-509 -165,-327 -98,-740 17,-1100 7,-25 19,-50 37,-72 69,-86 194,-99 280,-30 126,101 200,234 274,366 87,156 175,312 382,295 202,-171 353,-394 500,-612 450,-665 866,-1278 2346,-736zm-183 358c-1151,-406 -1479,78 -1834,601 -175,258 -356,525 -623,735 -30,23 -64,37 -98,41 -466,83 -643,-149 -793,-411 -14,143 -3,278 52,386 101,201 379,329 977,281 94,-7 178,51 205,137 12,33 -5,-13 13,37 111,304 349,958 872,1136 14,5 26,11 38,18 429,253 964,13 1271,-124l25 -11c22,-119 49,-248 76,-380 169,-822 373,-1809 -180,-2445zm2735 7856c197,-715 610,-1700 -654,-2418 -1350,-551 -1986,326 -2426,924 -210,286 -427,580 -739,808 -28,21 -61,36 -98,41 -566,84 -747,-223 -913,-546 -33,188 -31,368 35,512 110,241 425,405 1116,378 95,-9 187,49 218,144 25,77 -2,-5 16,52 114,356 361,1124 961,1354l0 0c13,5 26,12 39,20 489,316 1120,61 1482,-84 55,-22 105,-42 142,-56 87,-35 190,-8 248,72 409,566 736,714 994,651 154,-38 296,-148 424,-290 -356,70 -709,118 -994,-379l0 0c-16,-28 -26,-61 -27,-96 -16,-389 82,-743 176,-1086zm-1049 -1241c-51,-104 -7,-230 97,-281 104,-51 230,-7 281,97 133,274 212,658 176,1064 -29,335 -137,689 -356,1012 -65,96 -195,121 -290,56 -96,-65 -121,-195 -56,-290 174,-257 260,-541 284,-813 29,-327 -32,-631 -135,-844zm2017 11293c-352,1385 -760,2717 -1168,4053 -215,703 -430,1407 -639,2124 77,-64 155,-127 232,-189 568,-595 1149,-1179 1730,-1763 3231,-3248 6451,-6485 7110,-11411 9,-134 15,-268 20,-404 4,-116 100,-206 216,-203 8,0 16,1 24,2 7,0 13,0 20,1 115,12 199,115 187,230 -14,141 -31,280 -50,418 -283,4317 -2629,7420 -5181,10414 998,-618 2083,-1308 3304,-2195 2778,-2020 5156,-4442 6104,-7755 908,-3171 519,-7185 -2056,-12486 -1447,3096 -3697,5906 -6092,8896 -905,1131 -1832,2288 -2742,3495 5,2476 -405,4700 -1019,6773zm-390 -167c472,-1867 841,-3830 973,-6024 -3127,4233 -5989,9118 -7045,15655 -74,460 -185,1032 -309,1669 -91,472 -190,979 -283,1489 -1,12 -3,23 -6,35 374,-690 816,-1398 1328,-2122 772,-1091 1495,-1980 2198,-2731 245,-584 498,-1166 753,-1753 861,-1983 1743,-4015 2390,-6219zm1715 4164l37 -43c999,-1157 1996,-2313 2880,-3531 -1149,1442 -2469,2768 -3790,4096l-77 77c310,-201 626,-399 950,-600zm-14297 -3596c0,-4 0,-9 1,-14 12,-115 115,-199 230,-187 27,3 54,6 81,10 1297,76 2940,781 4234,2075 874,874 1592,2017 1940,3416 264,-935 564,-1834 895,-2701 -1011,-1828 -2299,-3133 -3710,-4007 -1666,-1032 -3508,-1468 -5274,-1461 -1768,7 -3457,458 -4814,1199 -920,503 -1683,1137 -2208,1853 1494,1178 3438,1732 5394,2290 3720,1060 7480,2132 8766,7285 60,-319 112,-601 148,-826 73,-453 155,-898 244,-1335 -50,-38 -82,-98 -82,-165 -17,-1781 -725,-3375 -1699,-4611 -1162,-1476 -2694,-2437 -3879,-2595 -22,-1 -44,-2 -65,-3 -116,-4 -206,-100 -203,-216 0,-2 0,-5 0,-7zm3630 1629c296,283 581,595 846,932 842,1069 1494,2394 1710,3877 16,-65 32,-131 48,-196 -214,-1708 -993,-3069 -1986,-4062 -199,-199 -406,-383 -618,-552zm17905 -2113c-710,653 -1472,1262 -2266,1839 -1491,1084 -2765,1868 -3927,2583 -2689,1655 -4765,2932 -7414,6679 -969,1370 -1670,2664 -2127,3882 -814,2171 -856,4109 -257,5807 543,1539 1616,2896 3120,4065 -289,-722 -450,-1544 -511,-2408 -182,-2546 497,-5489 1237,-7213 1539,-3582 4661,-6935 7723,-10224 1568,-1684 3119,-3350 4422,-5010z"/></g></svg>