<svg xmlns="http://www.w3.org/2000/svg" viewBox="0 0 100 125" x="0px" y="0px"><path d="M66.14066,34.584c1.26782-3.06708,4.68522-5.45358,7.5803-5.14233a9.03054,9.03054,0,0,1,3.18285,1.13217,13.63108,13.63108,0,0,1,2.37764,1.879,5.57306,5.57306,0,0,0,3.28837,1.4917,1.32015,1.32015,0,0,1,1.22632.97141,7.93012,7.93012,0,0,1,.3716,1.38832,2.19876,2.19876,0,0,1-1.30168,2.56226c-.27923.14478-.57384.25988-.89244.40248.40684,1.0401,1.21563,2.04667.28671,3.13371a3.21,3.21,0,0,1-2.96741.98753c-.67,2.2334-2.78741,2.39188-4.32915,1.22608C74.0133,46.21062,72.489,46.53,70.81524,46.40171a1.39524,1.39524,0,0,1-1.40608-1.61441c.47619-2.30443-.76483-3.94292-1.98531-5.58959a6.75575,6.75575,0,0,1-1.35505-2.85179.97561.97561,0,0,0-.69372-.54517,8.811,8.811,0,0,0-6.259,1.36589,23.37972,23.37972,0,0,0-8.31825,9.09609,42.3582,42.3582,0,0,0-3.55643,9.39475,28.10345,28.10345,0,0,0-.51712,5.87722,103.06546,103.06546,0,0,0,1.03324,17.69592,37.30524,37.30524,0,0,0,.845,3.949c.027-1.78407-.05652-3.57783.09936-5.35054.87823-9.98774,6.21014-16.68774,15.35947-20.46477a16.9257,16.9257,0,0,1,3.72113-.86855,3.372,3.372,0,0,1,1.62423.24542.94554.94554,0,0,1,.37314.81962.84907.84907,0,0,1-.70686.44412c-2.89363-.50487-5.37105.71137-7.70783,2.056-7.66348,4.40975-11.50665,11.13711-11.662,19.96576-.02051,1.16529.09519,2.333.14781,3.49954l.22327.04026c.08393-.25228.17352-.50283.25092-.75712a21.417,21.417,0,0,1,8.86514-12.226A7.79779,7.79779,0,0,1,66.03257,69.403a2.84294,2.84294,0,0,1,1.07921.488,1.20423,1.20423,0,0,1,.40477.95324c-.15158.5-.62475.468-1.06324.24852a5.74932,5.74932,0,0,0-5.665.14243,19.81272,19.81272,0,0,0-3.38112,2.388,20.88837,20.88837,0,0,0-6.62431,12.45671,8.9467,8.9467,0,0,0,.25435,2.54828c.03.23485.205.47041.17725.68832a2.42351,2.42351,0,0,1-.33513.70138c-.23537-.12655-.58439-.19519-.6841-.39087a11.9312,11.9312,0,0,1-.61737-1.64305,14.25078,14.25078,0,0,0-6.22564-8.01974,14.479,14.479,0,0,0-9.566-2.39991,5.12607,5.12607,0,0,0-3.89126,2.482c-.02839.04511-.04653.117-.086.13165-.33092.1223-.66574.23408-.99938.349-.05476-.32909-.26518-.74347-.13913-.97349a5.57444,5.57444,0,0,1,3.82011-3.02816,12.8588,12.8588,0,0,1,8.99185,1.21386,17.04064,17.04064,0,0,1,5.946,4.56634,5.23922,5.23922,0,0,0-.01174-.53108,94.93368,94.93368,0,0,1-1.36025-25.70206,8.03737,8.03737,0,0,0-1.49889-5.71836,17.27634,17.27634,0,0,0-3.70906-4.03246,8.51684,8.51684,0,0,0-5.89688-1.5148,10.52622,10.52622,0,0,0-1.66852.1585,3.25841,3.25841,0,0,0-2.59547,2.432c-.20037.74758-.741,1.05119-1.10011.65432a1.40808,1.40808,0,0,1-.253-1.06957,4.01018,4.01018,0,0,1,3.40326-3.39538c4.90361-.849,8.13035-.13755,11.70936,4.4316a47.31611,47.31611,0,0,1,2.68367,4.25738c.06378-.18771.152-.455.24523-.7205,1.4212-4.04631,3.02393-8.04947,6.07-11.14808,2.539-2.5828,3.77184-5.74865,4.94815-9.00951a1.4133,1.4133,0,0,0-.26434-1.41285,11.15706,11.15706,0,0,1-1.47457-3.24313,9.37165,9.37165,0,0,0-3.4914-5.55414,1.449,1.449,0,0,1-.05766-2.024A1.56667,1.56667,0,0,1,55.18,18.81866c.04237.03214.08131.06887.12128.1041,1.27629,1.1245,1.28674,1.10676,1.85684-.5743a5.9845,5.9845,0,0,1,.79929-1.54746c.427-.59418.92541-.5806,1.37551.00223a7.63464,7.63464,0,0,1,.67229,1.17365c.24687.476.533.475.84485.08408a5.4188,5.4188,0,0,1,.665-.89321,2.15775,2.15775,0,0,1,1.20655-.62446c.27465.01372.52854.6054.77467.951a4.66316,4.66316,0,0,1,.29086.57707c.46692-.30631.89146-.60323,1.33373-.87087a1.28109,1.28109,0,0,1,1.92409.42426,2.38265,2.38265,0,0,1-.28506,3.45376,6.44589,6.44589,0,0,0-1.82969,3.5538,18.01861,18.01861,0,0,1-.889,3.47148,4.41311,4.41311,0,0,1-1.633,2.06917,10.59965,10.59965,0,0,1-2.92431.733l-2.48133,6.20557A11.13786,11.13786,0,0,1,66.14066,34.584Z"/></svg>