<svg xmlns="http://www.w3.org/2000/svg" xmlns:xlink="http://www.w3.org/1999/xlink" xml:space="preserve" version="1.1" style="shape-rendering:geometricPrecision;text-rendering:geometricPrecision;image-rendering:optimizeQuality;" viewBox="0 0 50800 63500" x="0px" y="0px" fill-rule="evenodd" clip-rule="evenodd"><defs><style type="text/css">
   
    .fil0 {fill:black}
   
  </style></defs><g><path class="fil0" d="M29839 42256l-7 -690c33,-24 244,-158 335,-213 -120,293 -194,641 -328,903zm539 -1270c62,-455 6,-103 -59,-243l-169 -26c121,-326 20,-395 235,-725 -58,512 186,400 -7,994zm-2725 -1252c266,176 164,224 231,588 41,227 149,416 194,682 -105,-134 -301,-269 -314,-516 -19,-361 -82,-432 -111,-754zm-778 -384c151,165 242,413 312,691 -282,-154 -479,-384 -312,-691zm4009 552c82,-465 177,-732 453,-777 -68,146 -112,208 -196,379l-257 398zm-1232 -1984l23 911c-135,-195 -133,-697 -23,-911zm-1646 808c208,177 301,409 417,676 211,485 143,456 140,1028l-557 -1704zm-2301 -47c298,144 382,369 529,719 -112,-90 -171,-186 -273,-313 -57,-70 -241,-391 -256,-406zm66 -482l254 213c123,143 117,105 230,227 161,173 299,441 348,734 -210,-127 -34,20 -174,-129l-658 -1045zm2221 -599c174,475 412,714 502,1337 -237,-247 -659,-1151 -657,-1164 28,-313 82,-96 155,-173zm2123 1691c-182,-283 4,-149 43,-355 22,-111 -25,-325 63,-503l389 -906c-42,437 -314,1384 -495,1764zm1167 -947c48,-308 98,-439 204,-731 138,-380 172,-324 454,-510 -211,408 -399,892 -658,1241zm-4141 -1231c230,149 75,197 297,348 147,101 396,23 196,380 -324,-253 -287,-380 -493,-728zm-788 -175c-35,-265 158,30 67,30 -43,-1 -56,52 -67,-30zm-788 -71c157,99 329,241 340,491 -12,-23 -115,-120 -177,-191 -162,-185 -73,-113 -163,-300zm-1056 -140l1094 1653c-381,-164 -847,-1275 -1094,-1653zm3235 -233c201,209 254,237 329,570 -233,-85 -267,-343 -329,-570zm-520 -52c38,-141 -25,-47 114,-162l241 355c-24,-8 -43,-52 -50,-39l-202 -184c-288,-96 27,-65 -103,30zm3348 575c16,-564 131,-625 379,-935 -57,291 -140,777 -379,935zm1866 158c51,-265 185,-471 380,-674l-53 -204c-35,-179 6,-183 137,-452 64,108 33,-29 82,160 48,187 12,51 -18,161 -77,285 -53,612 -528,1009zm-8648 -1912c468,411 1119,1189 1369,1763 -158,-132 -218,-257 -337,-424l-900 -1031c-231,-309 -49,-23 -132,-308zm5999 302c-109,-344 -58,-563 113,-845 42,113 22,677 -113,845zm-1431 -878c216,313 519,1214 611,1667 -347,-277 -577,-1190 -611,-1667zm-5928 -27c218,60 201,117 278,368l-278 -368zm1537 -410c603,69 1448,1688 1575,2150 -217,-151 -264,-204 -386,-511 -179,-454 -42,-1 -406,-532 -265,-387 -577,-762 -783,-1107zm6706 1439c-26,-506 -9,-559 153,-971l366 -862c-24,383 -378,1495 -519,1833zm3449 -1050c138,-403 164,-564 410,-732 -69,352 -175,543 -410,732zm-1994 1904c-95,-146 -33,-184 147,-622 264,-644 280,-490 604,-1310 164,-414 122,-535 460,-494l-990 1740c-132,262 -123,454 -221,686zm109 -1099c22,-300 52,-591 176,-836 140,-275 203,-572 399,-738l-575 1574zm-1855 -1217c-44,-33 -127,-9 -72,-184 77,-247 137,-180 203,-230l-131 414zm-5802 -346l133 168c-205,-35 -116,49 -133,-168zm-2336 -108c205,186 383,464 594,721 230,281 457,401 584,731 -408,-167 -445,-308 -676,-640l-502 -812zm7970 -339c84,249 56,150 -6,446 -130,-70 -200,-68 -222,-199 -37,-224 132,-207 228,-247zm-6195 114c215,23 172,-186 207,189 -21,-15 -94,-58 -105,-69 -95,-90 -44,-36 -102,-120zm-1197 -190c75,130 303,320 343,438 212,621 172,165 276,477 -260,-3 -495,-377 -575,-620 115,-32 -7,-236 -44,-295zm1677 -201c-8,-192 90,-62 79,-5 -19,97 -73,133 -79,5zm6616 370c92,-344 259,-583 618,-622 -160,291 -71,26 -336,299 -113,115 -153,207 -282,323zm-9323 -828c229,80 212,83 229,378 -218,-198 -119,-116 -229,-378zm6029 -91c232,199 437,658 595,939 331,586 159,629 434,1122 4,-99 -26,-223 -25,-233l494 758 -59 275c-9,15 -33,37 -42,49 -9,12 -32,31 -47,47 267,249 211,754 170,1293l-255 -609c27,-13 51,-33 54,-22 1,2 88,-11 124,-138 -199,-335 -724,-1900 -1084,-2618 -177,-351 -236,-608 -359,-863zm3688 6l195 -28c-206,182 -127,69 -195,28zm-7490 934c-527,-219 -893,-738 -1275,-1057 228,92 1174,831 1275,1057zm-611 -1086c27,460 507,258 765,837 -380,-245 -827,-532 -1201,-914l272 -228c450,134 796,485 987,765 -315,-155 -448,-640 -823,-460zm-2331 -229c119,52 466,177 331,314 -81,83 -261,-203 -331,-314zm-543 -108c18,13 45,11 53,40 16,57 712,500 703,980 -370,-177 -578,-691 -756,-1020zm1557 -18l415 99c-3,209 -87,79 -143,294 374,247 1178,848 1446,1187 257,326 401,-29 319,333 -86,36 23,76 -156,27 -183,-50 -941,-682 -1085,-839l-807 -772c-2,-4 -14,-320 11,-329zm-403 -533c275,-24 642,44 683,326l-683 -326zm11687 2371c-148,-250 61,-473 209,-714l1213 -1987c-117,374 -469,999 -687,1354 -273,444 -532,945 -735,1347zm-13446 -2746c175,125 189,120 232,344 -128,-142 -138,-159 -232,-344zm13131 472c79,-242 188,-279 328,-495 170,-263 126,-337 349,-496 -83,288 -434,871 -677,991zm-13191 -1208c211,84 631,331 810,479 -225,71 -291,12 -432,-108 -94,-80 -316,-303 -378,-371zm12519 1196c49,-409 619,-1662 1019,-1863 -56,401 -792,1696 -1019,1863zm2487 -1529c81,-307 427,-628 631,-817 -82,355 -353,679 -631,817zm-773 -82c3,-311 89,-303 259,-591 160,-271 136,-320 417,-448 -180,226 -163,297 -311,550 -147,250 -245,304 -365,489zm2803 -1442c-90,233 -58,132 -207,285 22,-211 36,-202 207,-285zm-1991 -19c101,-267 -56,-87 273,-245 -168,291 -24,129 -273,245zm-15230 -1160c156,168 145,242 227,506 464,1494 -17,250 213,1087l290 516 -156 -652c190,325 330,614 504,971 132,272 114,259 280,493 129,182 156,280 296,491 -325,-135 -483,-337 -905,-425 -59,-116 -264,-592 -342,-812l-345 -819c-6,-10 -20,-32 -32,-47 -188,-3 -53,264 -252,-132l96 -59c5,-4 25,-16 31,-20 7,-5 25,-17 32,-23l242 -211c-362,-133 -303,-497 -179,-864zm10059 4566c-179,-1206 132,-3606 445,-4641l73 249c7,82 -12,265 -21,352l-336 3647c24,237 36,126 -161,393zm3956 -4034c118,-116 631,-783 1011,-874l-166 166c-10,10 -27,27 -38,38 -329,324 -390,468 -807,670zm3206 647c65,-181 -33,-14 138,-249l522 -635c231,-356 350,-699 674,-881 -418,604 -610,1273 -1036,1757l-298 8zm-1526 -1332c93,-232 189,-321 475,-408 -104,215 65,55 -202,261 -44,34 -194,113 -273,147zm-4469 3244c-314,-988 44,-3366 671,-3846l22 403c-29,179 -61,350 -100,519l-593 2924zm-8971 -2153c-135,-569 -445,-440 -640,-1781 119,85 117,1 294,358l502 1532c-11,-19 -40,-62 -47,-45l-109 -64zm-3529 -1765c153,75 97,-147 268,556l148 527c2,20 -1,121 0,147 -277,-358 -313,-747 -416,-1230zm17537 311c14,-16 35,-61 42,-47l318 -250c113,-92 190,-245 373,-181 9,19 277,-54 -152,324 -199,175 -243,166 -581,154zm2661 972c84,-273 385,-745 548,-1041 314,-568 204,-648 673,-1004 -95,191 -178,287 -295,453 -392,555 128,145 -722,1366 -2,4 -91,124 -95,128 -89,102 2,5 -109,98zm-140 -1370c145,-314 228,-164 300,-514l-578 576c-79,-137 651,-1131 995,-1193 -112,156 -301,326 -352,531 -34,133 24,489 -365,600zm1556 -1247l252 -358c15,255 6,322 -252,358zm-2378 541c94,-194 788,-691 1049,-814 -129,234 -279,294 -479,447 -162,123 -384,349 -570,367zm706 -1061c134,-211 315,-331 552,-386 -184,217 -248,284 -552,386zm-432 -215c152,-55 42,8 147,-84 148,-130 160,-281 536,-310l-460 368c-11,9 -29,24 -40,33l-183 -7zm1367 606c86,-165 866,-1045 1065,-1135 -111,329 -437,523 -693,872 -180,245 -77,204 -372,263zm-507 -1107c221,-187 431,-392 758,-556 -82,263 -32,194 -322,343 -146,75 -270,153 -436,213zm1466 -245c226,-353 562,-484 808,-792 -114,228 -134,297 -328,481 -247,234 -205,166 -480,311zm-16007 -479c128,-950 436,-1661 1478,-1634l443 382c241,169 254,283 330,623 111,500 -15,964 -233,1346 -136,-139 -200,-405 -430,-700 -189,-243 38,-121 -264,-215l-332 650 -107 -933c-394,0 -503,299 -885,481zm16158 2124c37,-304 599,-1046 793,-1413 264,-498 512,-999 797,-1429 -727,1682 -278,865 -1151,2156 -163,242 -239,470 -439,686zm-22368 -2475c-96,-467 -35,-458 108,-695 8,-14 22,-32 30,-46 70,-122 290,-711 633,-840 824,-312 1180,579 1231,1210 -14,6 -40,-12 -46,5 -80,255 3,-124 -197,77l-195 317 -257 -230c-210,250 -110,260 -323,445 -99,-603 25,-523 87,-709 -491,-80 -679,460 -1071,466zm13172 1414c208,-646 1674,-2212 2238,-2691 -48,494 -40,74 -243,511 -351,752 -363,532 -418,1090 -71,733 -477,1163 -663,1767 -445,1441 -170,1187 -699,1467 -153,82 -153,82 -279,256 -341,470 -209,716 -377,1454 -78,340 -68,483 -102,841 -34,346 -38,659 -9,1009 11,138 21,295 49,423 36,170 396,820 -102,1449 -40,51 -55,41 -65,45l-50 -4c-4,1 -28,4 -31,4 -4,1 -23,4 -34,9 -139,383 10,334 -268,680 -127,-1698 -115,-1984 312,-3421 -122,189 -66,216 -241,402 -50,-810 165,-1643 240,-2420 83,-62 63,-31 110,-52 6,-3 30,-14 36,-17l67 -34c-5,-465 -169,-478 -14,-932l310 -919c-499,97 -546,895 -563,1463 -390,178 -475,981 -548,1394 -360,-612 -187,439 -161,585 19,107 -171,2137 -130,3043 23,519 60,431 164,557l132 -195c11,-21 38,-95 47,-115 8,-15 22,-42 28,-55 6,-12 19,-36 31,-53 58,885 -9,1457 -393,2103 -14,-32 -28,40 -54,-165l-45 -722c-33,-318 -40,-651 -60,-973l174 -3858c-1,-339 -40,-655 -23,-1007 21,-445 131,-551 176,-929l137 433c86,-875 47,-807 477,-1420 138,-197 243,-347 387,-537 77,-102 130,-164 210,-256 145,-165 78,-111 247,-210zm-1861 -2402c51,954 -111,1862 1,2952 90,870 5,5226 -96,6198 -104,1004 -37,1290 35,2191 25,301 89,580 -101,800 -99,-607 -164,-941 -375,-1492 -170,-442 -724,-1418 -883,-1967 -144,-496 -619,-1109 -689,-1243 -109,-211 -174,-488 -291,-712 -731,-1394 -2194,-3587 -2822,-4875 141,-164 520,-531 742,-606 161,563 -15,889 70,1241 516,-153 307,-538 726,-865 324,364 213,727 678,839 368,-217 213,-163 272,-515 37,-222 605,-1441 -363,-2158 104,-62 5,-12 149,-29 217,-27 -34,56 221,-25 155,-49 217,-151 321,-291 242,-327 319,-458 859,-377 833,125 1334,794 1546,934zm3972 1954c95,360 204,-201 -8,837 -302,1485 -167,1176 -670,2895l-512 1805c-85,187 -341,484 -476,677l-486 660c-79,-474 204,-1457 305,-1988 151,-793 84,-1112 561,-1747 -11,-9 -27,-40 -33,-29 -6,13 -31,-24 -39,-29 -11,-6 -38,-24 -50,-31l271 -1691c192,-83 61,-11 151,5 -108,-314 47,-621 187,-853 122,264 26,229 14,544 -10,266 49,318 99,573 54,-302 33,-489 61,-772l465 -2093 92 302c134,-808 -36,-657 422,-1325 239,-348 531,-680 950,-860 -86,574 -254,133 -665,1532l-403 1223c-65,156 -108,91 -236,365zm-13823 -3189c98,-1667 927,-774 1612,-166 172,152 241,199 387,383l1228 1631c393,492 660,508 1291,1564 207,345 272,590 494,897 115,160 189,290 272,417l820 1348c564,1393 847,1434 1485,2838 380,835 1373,2605 1595,3418 6,24 24,98 30,124l85 498c-466,-607 -881,-1572 -1332,-2189 -293,-400 -425,-663 -732,-1042 -251,-310 -559,-652 -793,-980l-96 -140c-96,-122 -1145,-1085 -1608,-1708 -267,-360 -647,-670 -814,-965 -378,-669 -640,-537 -731,-1117 -176,49 -67,160 -581,-268 -241,-201 -348,-335 -549,-531 -326,-315 -765,-835 -798,-1290 -295,-144 -333,106 -363,-453 359,70 432,180 616,348 -313,-622 -571,-130 -677,-854 -81,-560 -79,-665 -367,-1177 -305,-544 -167,-322 -474,-586zm-5114 752c-263,-233 -111,-264 -385,-432 -247,117 -167,200 -330,418 -171,-564 -374,-1561 168,-2055 1203,-1095 1497,596 1494,1728 -437,-108 -379,-270 -715,-305 -151,219 -54,401 -232,646zm-2237 509c-357,-184 -602,-576 -1011,-627l-346 568c-107,-148 -143,-265 -204,-414 -116,-279 -13,-162 -214,-339 -363,88 -294,251 -686,427 -15,-1217 723,-2624 1792,-2149 305,135 650,-33 903,891 110,401 -21,701 -118,1188l-94 393c-5,16 -12,43 -22,62zm28558 345c-2,-315 304,-2389 477,-2656 132,-203 -13,-9 161,-157 -42,614 -378,2448 -638,2813zm-2776 2193c-233,106 -310,300 -561,470 142,-503 440,-415 555,-857 -288,59 -210,95 -475,239 274,-989 238,139 545,-564 258,-207 474,-711 635,-1063 273,-601 252,-706 649,-1073 -103,692 -182,1034 -563,1486l381 -169c370,-89 146,-730 781,-1155 120,-80 54,-35 147,-47 189,-25 -67,106 117,-1 160,-132 188,-1237 695,-2063 -71,926 -658,2238 -653,2820 231,-361 242,-764 461,-1078 -53,378 -106,593 -186,923 -45,185 -35,357 -147,565 -8,15 -21,35 -30,50 -8,14 -24,34 -32,47 -147,218 -203,40 -278,35 -285,-17 -665,310 -821,483 -102,-142 -76,-172 -306,-218 -573,484 -296,401 -693,844l-221 326zm-15981 3834c161,674 -296,-43 356,1424 204,460 426,933 696,1252 -63,-670 -990,-1534 -800,-2350 314,1148 875,1795 1462,2673 197,295 387,612 598,792 -195,-350 -446,-734 -549,-1080 -89,-302 -231,-110 -299,-699 -10,-90 -4,-116 -22,-211 -4,-20 -11,-43 -16,-61 -4,-16 -15,-43 -18,-55 -4,-13 -11,-37 -21,-53l-102 347c-9,18 -25,44 -32,58 -7,14 -20,40 -35,57 -487,-948 -847,-1738 -1163,-2839 -73,-252 -65,-439 -110,-596 -201,-704 -578,-538 -712,-890 316,-660 1038,983 1294,1472l-788 -1679c-272,-452 -295,-123 -379,-481l-78 351c-134,-208 -336,-851 -354,-1129l124 -22c248,-16 1460,1496 1678,1760 1047,1274 428,208 1340,1361 91,116 230,312 302,390 120,128 211,175 366,328 469,460 827,960 1262,1434l-140 81c417,350 193,-153 1024,972 741,1003 818,1693 1137,2874 109,403 45,560 111,894 51,259 186,492 254,736 -386,-235 -759,-903 -973,-1322l-89 314c-291,-446 -832,-887 -1229,-1099 42,104 229,500 288,544 172,128 7,9 92,18 405,47 -235,-106 104,1 250,79 938,873 1134,1071 213,216 941,1253 1051,1575 46,134 78,259 111,355l145 312c15,-276 -27,-179 -36,-348l35 -279c355,152 401,988 263,1283 -287,618 100,350 135,1445 -13,-16 -31,-61 -37,-49 -59,137 -585,-1837 -971,-2445 -1301,-2052 -567,-768 -1547,-2001 -227,-285 -573,-629 -811,-886 -603,-651 -347,-406 -695,-1081 -200,-387 -378,-744 -590,-1190 -204,-432 -287,-959 -454,-1304 -74,129 -34,237 -22,393 26,332 -31,392 53,526 4,5 19,19 23,25l702 1223c69,131 120,237 189,354 154,258 154,118 199,380 -278,-229 -402,-338 -776,-579 -322,-207 -357,-416 -816,-654 -611,-319 -1092,-389 -1333,-593 -88,-73 -72,-82 -181,-204l-187 -193c-539,-93 -512,-55 -552,-528 -201,147 -202,142 -574,-513l-864 -1915c-140,-421 -143,-756 -240,-1124 -246,98 -78,105 -290,417 -114,168 -171,203 -400,270 97,329 194,359 52,610 -284,-118 -316,-713 -360,-995 181,45 27,6 176,104 132,87 -93,17 158,108 -147,-422 -85,-417 -34,-583l53 -236c1,-165 -24,-163 -73,-310 -151,-453 -165,-874 -218,-1392 -314,95 -131,165 -396,227 212,353 277,199 369,789l28 361c-2,26 -5,44 -8,70 -55,399 -98,122 -79,694 -484,-818 -231,-1850 -504,-2603 -280,799 259,1188 -107,1710 -457,-674 -461,-1837 -541,-2038 -57,-141 -321,-220 -319,-1350l290 279c-48,-256 -116,-123 -190,-519 -130,-694 -472,-1220 -413,-2348 14,15 32,21 37,50 5,28 29,38 36,49 9,15 52,83 64,103 62,110 30,90 102,209l-84 -633 1061 1042c131,210 22,-1 135,245 -448,154 -299,324 -625,645l-23 -1072c-10,9 -29,24 -39,34 -357,354 -156,388 -146,1327 6,531 369,-36 148,904 -2,8 -161,65 95,452 -1,-238 42,-100 299,-276 221,-151 213,-242 526,-296 94,233 185,457 286,704 122,301 97,477 192,804 134,-576 -91,-303 268,-416 -77,-142 15,-27 -100,-142 -63,-64 -93,-76 -161,-117 68,-195 163,-425 248,-663 625,249 382,232 802,584 112,95 -37,26 143,107l95 -369c101,347 251,466 264,677 19,290 -53,247 50,727 114,524 259,984 324,1487 -89,-124 -198,-303 -300,-413 -136,344 503,1047 715,1898 122,491 351,1787 720,2040 -145,-407 -507,-1360 -565,-1903l306 324zm17137 -7083c-34,-67 -61,54 -54,-207 10,-355 330,-1311 506,-1638l41 121c0,512 -195,1261 -493,1724zm-5797 5740c44,-161 101,-258 122,-392l-51 -649c-4,-16 -15,-36 -20,-53l-34 -115c-9,-68 0,-196 10,-266 159,-1111 500,-2322 902,-3344 161,-410 618,-1110 460,-1550 -443,16 -365,203 -690,356 189,-485 319,-450 595,-760 195,-219 467,-555 614,-734l-653 2840c-56,1159 -198,1950 -353,3131 -138,1049 -475,874 -902,1536zm-14741 1518c-223,-254 -741,-1717 -851,-2098 -237,-816 -416,-1616 -504,-2496 -147,-1466 -585,-3164 -805,-5179 199,126 289,298 416,480 435,626 -207,638 404,2767 128,444 54,275 27,648 -85,1169 1171,5058 1773,6037 264,428 244,129 450,152 188,301 697,1113 777,1384 -865,-556 -615,-753 -1115,-807 -38,-332 43,-66 -12,-320 -20,-88 -104,-275 -137,-389 -368,-67 -315,115 -423,-179zm23378 -9178c256,23 11,-98 251,-19 -38,506 -178,1036 -401,1365 -190,-210 -70,-168 -154,-432 -27,42 -12,-41 -78,155 -30,91 -37,91 -42,171 -17,249 31,222 137,331 661,-119 795,-2034 834,-2628 211,392 170,1050 103,1444 -184,1087 -316,716 -850,1701 -240,443 -1008,1176 -1139,1333 74,-338 161,64 426,-804 109,-357 197,-737 276,-1109 117,-551 262,-1869 410,-2292 102,42 178,-205 227,784zm-3932 4457c-191,84 -117,21 -180,0 -29,-834 736,-1826 933,-2302 -285,11 -313,154 -441,374 -625,1075 -967,3425 -2258,3870 5,-13 534,-895 584,-1591 12,-168 1,-137 -26,-187 -114,206 -144,427 -159,602 -18,199 52,297 -287,475 -7,-1188 69,-2749 484,-3612 -157,102 -177,279 -251,444 -1,-416 -9,-484 153,-691l77 -78c156,-206 213,-705 164,-846 -146,396 -91,601 -286,875 33,-534 251,-1720 465,-2096 45,319 -110,839 -186,1134 332,-184 171,-1264 537,-1448 187,-95 74,109 375,-180 -82,1018 -539,3129 -549,3330l135 -221c24,688 -282,1649 -54,2306 132,-31 213,-13 322,-380l390 -1801c-10,280 -438,1534 -615,1781 -55,-1409 256,-3173 543,-4590l226 -988c121,-346 -153,-221 289,-513 -33,653 -689,3370 -384,3778 246,-167 165,-375 372,-1084 101,-344 263,-919 267,-1322 -194,90 -114,-19 -182,213 -69,231 170,-151 -153,496 -8,16 -19,39 -25,54 -7,14 -19,41 -25,52 -5,12 -13,36 -23,53l53 75c117,187 -58,637 -158,825 -108,-280 276,-2338 370,-2879 22,-128 49,-287 83,-446 68,-326 -12,-310 193,-403 125,291 78,745 -9,1045 -1,4 -80,210 -86,224 -7,16 -19,35 -26,51l-91 355c2,21 14,83 20,103 55,190 -110,-46 73,150 29,-96 37,-182 74,-297l131 -311c-88,717 -199,1544 48,2150 64,159 62,1092 -250,1561 -122,184 -41,22 -117,192 25,4 129,-69 235,0 -118,273 -270,574 -385,850l-390 848zm-25148 -6330l649 41c-108,65 -76,85 -253,165 -292,-94 -185,25 -396,-206zm3165 -150c932,-110 1100,259 1999,770 926,525 1396,1106 1726,1277 -97,466 -174,157 -381,763 -97,287 -151,583 -197,882l-528 86c-310,-299 -322,-564 -696,-848 -230,-175 -226,-95 -422,-349 -288,-372 -481,-850 -1007,-1462 -215,-250 -372,-781 -494,-1119zm16852 486c-159,-56 -241,-101 -389,-151 -511,-177 -273,20 -578,657 -289,-161 -226,-271 -459,-507 -55,19 -879,947 -894,-240 -10,-888 125,-1711 971,-2107 388,191 879,112 1211,574 299,416 235,1004 339,1531l-134 -106c-145,-109 80,-30 -136,-93l69 442zm8959 -1681c254,256 541,882 463,1224 -66,288 -159,1258 -200,1333 -176,-305 -269,-2015 -263,-2557zm-29018 884c286,-163 491,-104 583,233 -658,-34 -530,-158 -583,-233zm7692 564c-459,-97 -75,-174 -560,-177 -90,256 -24,330 -227,586 -810,-216 -448,-1113 -309,-1822 302,-210 -314,136 134,-35 236,-90 159,-130 247,-342 583,-34 637,291 1075,773 215,236 169,58 266,488l-616 -44 -10 573zm-8187 -848c296,107 187,54 319,214l-200 158c-123,-169 -123,-102 -119,-372zm-475 -238c173,68 274,70 261,316 -152,-45 -207,-105 -261,-316zm25652 1969c197,-832 336,-1278 710,-1983 -67,535 -106,589 -263,1093 -105,339 -105,786 -447,890zm1512 -1708l-245 -112c82,-368 -2,-38 108,-295 130,-308 27,-177 214,-355l-77 762zm-13800 -1094l-176 -174c-226,-238 -245,-344 -529,-454 -224,113 -378,436 -584,650 -80,-516 -152,-987 30,-1458 137,-352 490,-774 861,-849 1564,-319 1204,1117 1394,1893 -399,-68 -530,-308 -820,-303l-176 695zm11577 3289c-75,-113 -70,-4 -42,-200 9,-66 54,-145 83,-206l684 -1337c-637,198 -1371,2989 -1605,3801 -435,1509 -545,2670 -705,4153 -8,70 -26,207 -26,271l54 329c291,-105 237,-109 322,-488 -13,-4 -36,-16 -40,-2 -4,12 -34,-2 -38,-2 -5,0 -31,0 -36,0 -185,2 19,71 -106,4 33,-1276 451,-3318 825,-4624 101,-350 69,-402 329,-537l-512 3584c-87,323 -27,147 -163,420l209 0c10,1475 260,999 -580,1833l-1346 1182c185,-524 506,-820 748,-1249 -276,41 -177,10 -339,211 -621,774 -455,1209 -1492,2364 -12,14 -28,31 -39,43l-134 122 -82 -406c14,-349 130,-893 390,-1082 -5,64 -80,203 0,360 340,-156 348,-178 512,-564 95,-225 230,-420 461,-614 402,-339 580,-613 520,-1130l-27 -146c-119,227 -69,375 -264,550 17,-576 146,-1257 226,-1819 175,-1224 15,-568 475,-1503 -342,233 -122,215 -274,150 90,-411 110,-903 236,-1292 172,-529 457,-629 593,-1036 -268,45 -178,56 -389,173 100,-665 167,-964 540,-1409 109,-131 178,-216 298,-395 1149,-1718 1173,-1497 2069,-3335 318,-653 439,-1377 717,-1952 39,1119 -159,1493 -431,2468 -1,5 -635,1316 -877,2058 -196,603 11,356 -383,624 -291,199 -190,353 -361,628zm3152 -7103c100,258 129,642 68,979 -113,-158 -126,-286 -171,-506 -65,-325 -111,-294 103,-473zm-36 -1290c175,855 474,2236 814,2898l661 1195c283,580 264,917 238,1682 -224,-352 -558,-1839 -895,-1988 -37,357 326,737 335,1283 334,176 242,190 502,1160 127,473 10,811 82,1387 212,123 96,47 216,180 -496,44 -531,674 -813,965 167,-945 98,-1200 -425,-1134 -124,172 -419,614 -352,819 76,-330 231,-634 596,-675 126,261 59,623 32,925 -465,364 -135,-48 -642,695l-248 323c459,-311 224,-407 648,-645 -100,422 -371,915 -481,1331 -120,454 -206,582 -698,1063 45,-279 76,-583 141,-843l242 -535c74,-109 94,-115 148,-169 -213,-611 -148,27 118,-650 132,-337 9,-273 49,-644l-122 266c-38,90 -81,196 -113,275 -37,-60 -76,3 -50,-206l207 -798c50,-210 57,-317 170,-525 130,-237 134,-136 179,-452 -420,-7 -113,0 -403,190 19,-212 37,-370 50,-603 33,-574 78,-487 -76,-698 -179,68 -174,-16 -217,308l-124 1598c-74,255 -206,517 -323,825 -237,623 -173,688 -419,822 -17,-537 -46,-897 10,-1377l308 -1868c243,-637 336,-1183 451,-1850 11,-3 31,-16 33,-4 14,73 67,15 90,4 16,-522 161,-798 141,-1170 -99,51 -180,57 -255,153 -13,16 -303,579 -265,836 123,-298 145,-243 209,-305l-323 1229c-212,-154 -72,-128 -393,-102l-16 -823c-77,99 -39,-80 -127,209 -48,158 -49,1841 -464,2150 120,-472 -117,-791 384,-2025 157,-388 254,-1119 502,-1410 195,-229 233,-84 338,-286 -91,-109 116,-190 -210,-138 -141,23 -325,451 -370,571l69 -1188c21,-196 337,-830 419,-1028 281,332 100,462 241,769 109,240 57,-71 168,382 45,187 55,268 72,478 161,109 15,14 129,77l74 641c73,-91 81,7 84,-163 0,-20 -37,-184 -52,-255l234 291c-32,-611 -310,-919 -338,-1283 -18,-242 72,-501 3,-764 -82,-316 -199,-199 -413,-335 -66,-399 124,-693 240,-1041zm-19646 530c5,-758 347,-1656 935,-1644 866,19 1113,320 1057,1462 -349,-121 -261,-247 -631,-328l-322 554 -186 -684c-403,76 -457,460 -853,640zm8153 -372c-248,-543 -614,-1307 -345,-1792 96,-172 77,-117 227,-235 568,-445 1252,-231 1619,63 238,191 515,889 621,1172 -655,61 -556,-187 -892,-116 -20,355 122,385 43,959 -502,-187 -410,-496 -768,-591 -134,197 -189,602 -280,844l-225 -304zm-4273 -1177c313,-71 224,49 267,164l-475 38c47,-122 66,-169 208,-202zm559 33l171 37c-9,6 126,191 -171,-37zm-3150 -2457c-455,30 -1032,-295 -1230,-572 -387,-539 -350,-773 -209,-1488 293,157 825,870 876,1336 -277,-140 -353,-309 -563,-644l-125 -192c-5,-26 -22,-31 -34,-46 -40,63 -176,-150 -31,265 93,266 1102,1132 1316,1341zm453 133c-387,-43 -176,-246 -215,-703 -210,-142 -439,-293 -554,-453 -52,-72 -116,-218 -163,-291 -502,-793 -1165,-859 -772,-1392 404,875 1895,1574 1704,2839zm-1811 -332c-2277,141 -2643,1141 -3399,1348 -443,121 -861,-153 -1686,739 -439,474 -464,1258 -479,2002 333,-60 269,-220 468,-433 249,98 240,71 373,370l107 272c7,13 18,34 26,46 77,112 17,33 111,102 93,-106 73,-78 141,-221l196 -308c131,125 539,379 708,363 119,-10 219,-1 52,-274 -2,-2 -241,-217 -255,-227 -172,-124 -426,-185 -688,-260 -130,110 -47,42 -121,128l-84 102c-10,12 -28,37 -44,54 -87,-310 -143,-299 -388,-457l-354 131c-6,-549 100,-1015 392,-1306 226,-226 735,-554 1139,-653 14,17 32,23 36,54 2,13 700,1297 573,1953 -72,370 -210,407 208,502 -24,-419 187,-808 182,-1258 -14,-1198 -1086,-1019 500,-1901 374,-208 778,-320 1240,-449 1155,-324 1758,-174 2764,180 -80,429 -344,684 -499,1538 -669,225 -827,333 -1141,868 -213,362 -372,1245 -141,1667 287,-105 498,-477 754,-667 194,238 140,578 308,828 290,-103 250,-305 364,-538 8,-17 18,-37 27,-52 9,-16 20,-37 30,-52 58,-88 71,-84 119,-135 328,132 532,503 849,565 210,-612 78,-1782 -467,-2164 -354,-248 -537,-188 -362,-820 119,-428 276,-709 503,-940 529,132 1592,938 1800,1369 350,-94 773,57 929,411l-1014 -17c-183,213 -355,376 -390,703 907,-105 1095,-165 2035,125 115,36 326,66 412,115 313,179 715,699 884,987l-318 -86c-266,320 -60,175 -495,363 -553,238 -789,1011 -1039,1497 -1278,115 -1717,1711 -1273,2742l49 113c38,94 38,116 76,204 257,-109 379,-519 591,-731 430,127 412,461 702,733 277,-182 214,-453 386,-765 507,139 383,195 1020,169 -5,-873 -24,-1597 -619,-2171 -239,-231 -257,-218 -593,-324 73,-237 418,-936 546,-1081 123,-140 303,-220 507,-244 287,-34 398,-21 605,-215l97 82c248,273 963,1581 1085,1856 246,550 756,1721 492,2411l101 65c546,546 543,4967 551,5608 -528,-163 -824,-656 -1500,-769 -978,-162 -842,535 -1535,625 -1286,169 -1985,-53 -2281,1665l-173 451 -2115 -2598c-392,-588 -1132,-1095 -1654,-1513 -157,-126 -264,-203 -430,-338 -163,-131 -284,-266 -443,-403 -526,-453 -1328,-951 -1912,-1328 285,-960 708,-1672 1937,-1626 -270,600 -750,491 -439,1603 120,430 533,1077 873,1377 411,-292 164,-551 479,-872l463 298c245,-349 54,-283 111,-748l733 5c132,-325 28,-460 -149,-730 -238,-364 -1213,-1620 -1672,-991 -19,-11 -48,-52 -57,-35l-315 -161c-146,-36 -403,-31 -552,-3 -646,119 -1304,749 -1666,1249l-182 353c-6,10 -20,32 -32,47 -1158,-19 -1588,-172 -2700,132 -284,-19 -203,-421 -1237,-740 -367,-113 -1330,-500 -1626,-314 74,171 246,261 345,440 144,258 1037,1009 1306,1258 -322,462 -876,707 -1157,1250 -980,61 -1261,-104 -1878,831 -372,564 -421,973 -468,1624 -21,277 -89,259 -116,516 396,62 563,-386 958,-569 271,554 162,511 257,1113 307,-128 508,-663 657,-909 613,183 575,529 1127,613 186,-340 374,-1266 393,-1691 33,-733 -477,-991 -660,-1466 270,-483 1494,-1515 2160,-1673 -201,676 -170,496 -208,1310 -1077,929 -810,2083 -484,3368 275,-60 206,13 296,-247 20,-57 25,-133 48,-191l133 -205c380,259 83,316 463,489 151,-172 255,-639 385,-781 387,200 679,563 1043,214 -100,-291 -252,-157 -239,-737 9,-386 -41,-721 -177,-1015 -326,-702 -363,-839 -1166,-1052 -77,-583 -16,-868 363,-1135 494,-348 537,-222 1198,-210 -73,707 263,762 428,2248 48,433 66,821 113,1239 50,439 157,662 230,1155 121,810 298,1484 364,2319 75,944 86,1271 379,2175 117,362 185,647 284,1023 135,514 777,1808 1109,2284l3480 5319c1514,2335 1072,1403 1452,1863l891 1195c771,969 1788,1856 2511,2889 345,494 875,971 1182,1526 123,221 811,1646 817,1865 9,313 -132,77 61,411 161,278 133,227 123,590 -14,520 62,869 84,1314l-107 114c-91,127 193,398 294,444 135,60 51,28 235,52 276,-928 275,-2248 105,-3171 -124,-673 -212,-742 -17,-1386 626,-2060 1766,-3873 2910,-5649 477,-740 820,-1370 1326,-2071l2755 -4035c223,-348 444,-688 672,-1025 259,-384 451,-725 703,-1073 260,-360 496,-573 730,-966l1005 -1542c125,-163 250,-310 374,-477 243,-326 439,-665 689,-1008 716,-986 1301,-2252 1525,-3563 44,-254 314,-1408 314,-1431 -2,-179 -38,-44 -47,-299 -30,-874 -4,-1857 -316,-2680 -334,-881 -1095,-2896 -1529,-3567 -539,-835 -788,-2375 -838,-3401 -16,-322 77,-597 -237,-673 -183,315 -164,892 -303,1302 -275,810 -671,1628 -1000,2392 -185,430 -267,819 -422,1269 -629,1820 -1613,2931 -2511,4278l-1179 1377c-524,569 -976,1338 -1523,1868 -533,518 -598,451 -1246,1299l-1422 1972c-214,293 -464,775 -720,970 19,-534 -34,-1002 -67,-1475 -70,-999 158,-2867 156,-2924 -17,-473 -98,-1004 -110,-1463 -17,-622 -15,-889 118,-1439 66,-275 -113,-939 -100,-1346 26,-838 145,-155 -210,-1189 -151,-442 -209,-823 -337,-1234 470,-417 388,-967 1379,-878 315,28 648,275 733,431 221,402 -237,382 327,604 -910,430 -1439,1777 -1160,2770 42,148 346,859 416,938 302,-118 376,-352 617,-598 174,143 400,438 617,531 198,-259 251,-507 297,-852 623,74 469,322 1232,19 26,-230 -330,-1655 -435,-1867 -207,-414 -683,-548 -1007,-770 -128,-88 -38,-24 -135,-159l-95 -134c-351,-453 -560,-1091 -1320,-1164 -570,-55 -931,106 -1292,491 -139,148 -122,196 -250,355 -445,-1561 -1362,-3221 -2475,-4313 -187,-182 -98,-108 -224,-307 -119,-190 -131,-134 -318,-307 -200,-185 -435,-376 -593,-545 117,-621 349,-1136 994,-1214 734,-88 1464,42 1689,519 -286,594 -573,646 -174,1563 185,424 374,1243 788,1363 251,-239 237,-563 386,-775 148,106 592,459 738,505 209,-224 192,-554 221,-938 608,-47 794,40 947,-483 -151,-369 -318,-18 -268,-738 -460,53 -428,-444 -939,-655 -191,-78 -385,-117 -588,-194l-651 -180c-97,187 -110,175 -208,324l-199 -156c-134,-126 13,-26 -156,-154 -396,-300 -1101,-316 -1600,-253 -1017,128 -854,613 -1232,1215l-1002 -676c-296,-198 -854,-439 -1008,-760 -350,84 -525,82 -604,-337l-292 36c-16,-710 -70,-710 -305,-1204 -389,-818 -1213,-935 -1582,-2203 -82,-280 -51,-315 -299,-428 -230,285 170,283 -186,1768 -281,1174 209,1045 344,1748z"/><path class="fil0" d="M23712 20500l-769 -107 -4 717c-537,-206 -623,-1178 -515,-1846 190,-143 136,-29 263,-174 152,-173 -3,-114 176,-333 846,-65 1392,41 1766,893 -239,275 -303,169 -691,233 -476,78 -222,142 -226,617zm-2536 -549c37,-125 0,-1215 1064,-911 -164,530 -201,2160 854,2529 173,-255 86,-459 86,-849 641,-34 1091,212 1046,-78 -47,-305 -132,-74 -207,-452 260,-139 1111,-98 963,-867l-239 -88c-255,-124 -212,-233 -376,-397 -151,-150 -1415,-996 -1918,-68 -542,-55 -761,-171 -1126,188 -224,221 -481,577 -479,1008l332 -15z"/><path class="fil0" d="M26088 31216c-221,-285 -314,-488 -501,-863 -143,-286 -346,-526 -483,-811 459,256 850,1167 984,1674zm552 314l-841 -1321c-130,-327 -52,-119 0,-211l-660 -741c-244,-307 -97,-107 -388,-304 -273,-184 -972,-1195 -1245,-1538 -185,-233 -76,-117 -382,-244 -115,420 41,489 148,788 131,366 78,457 368,697 -48,-198 -120,-307 -190,-491 -80,-213 -112,-412 -152,-680 20,13 49,9 58,40l600 676c105,169 48,112 187,279 143,172 214,291 384,465 172,177 278,264 431,511 -323,-127 -25,-94 -412,-191 53,307 1623,3166 1828,3311 -28,-219 -1188,-2332 -1399,-2726 550,253 1103,2011 1582,2340 342,235 -150,-33 295,511 7,8 23,25 29,33l450 663c102,174 177,389 367,528 -143,-359 -462,-968 -655,-1324 -202,-373 -610,-934 -699,-1306l296 235z"/><path class="fil0" d="M26062 33312c-141,-430 -235,-274 -172,-578 1,-6 6,-30 8,-35l-1871 -3875 -316 48c136,583 1452,2389 1734,3315 112,368 289,896 617,1125z"/><path class="fil0" d="M22860 27984c-8,1 -23,-6 -24,3l-115 74c110,202 174,198 233,291 329,517 775,2312 1206,2632 -79,-435 -564,-1437 -728,-1873 -138,-370 -576,-1813 -724,-1961 -167,232 -77,225 152,834z"/><path class="fil0" d="M31201 24367c-55,353 -208,479 -196,811 72,-299 318,-828 713,-814 -57,251 -151,325 -239,576 -76,215 -96,465 -170,628 217,-82 -5,-97 310,-379l-4 446c35,-471 475,-1010 552,-1559 -595,-48 223,166 -723,78 -7,7 -108,107 -112,111 -105,91 -56,48 -131,102z"/><path class="fil0" d="M20491 28061c77,-252 -422,-1415 -439,-1924l-176 -1012c-124,-1024 88,-824 -254,-922 -161,335 380,2392 521,2954 99,395 290,613 348,904z"/><path class="fil0" d="M40846 15791c-83,-307 -150,-576 -208,-870 -197,-1001 -111,-702 -383,-791 -148,466 14,98 226,504 -96,63 26,62 -179,77 20,322 108,584 186,893l198 889c122,-215 96,-432 7,-625 8,-3 22,-6 25,-7 2,-2 23,-10 26,-11 4,-2 28,-14 31,-15l71 -44z"/><path class="fil0" d="M22102 31066l83 -35c-359,-567 -816,-1711 -1083,-2271 -36,48 -251,-161 84,593 260,585 857,1352 916,1713z"/><path class="fil0" d="M20481 25353c-92,-378 -230,-1200 -396,-1411 0,0 -120,-6 -59,404 17,119 73,244 107,344 49,145 66,213 123,346 141,326 156,258 225,317z"/><path class="fil0" d="M41086 16634l-169 -417c-116,98 178,1037 309,1209 45,-69 149,116 39,-511 -37,-216 -53,-379 -78,-600l-101 319z"/><path class="fil0" d="M37133 21890c-111,201 -531,1728 -459,1902 141,-281 447,-1495 459,-1902z"/><path class="fil0" d="M20365 26704l247 221c138,178 33,205 204,329l-655 -1584c-167,418 372,552 204,1034z"/><path class="fil0" d="M26720 33068c-143,170 112,466 240,618l116 128c7,-14 29,29 44,43 -63,-201 -104,-270 -182,-457 -9,-22 -87,-215 -91,-221 -96,-153 12,-24 -127,-111z"/><path class="fil0" d="M26640 31530c97,376 393,692 596,922 -133,-338 -364,-615 -596,-922z"/><path class="fil0" d="M28959 37243c-10,296 3,412 237,563 -39,-127 -36,-172 -90,-323 -32,-88 -25,-72 -75,-160l-72 -80z"/><path class="fil0" d="M31765 28796c111,-232 133,-256 48,-393 -130,231 -144,225 -48,393z"/><path class="fil0" d="M18538 28538l231 68c-59,-158 101,-111 -89,-131 -201,-21 -33,-15 -142,63z"/></g></svg>